<svg width="440" height="280" viewBox="0 0 440 280" fill="none" xmlns="http://www.w3.org/2000/svg">
<rect width="440" height="280" fill="url(#paint0_linear_101_498)"/>
<path d="M112.73 196V187.66C111.35 185.52 110.05 183.41 108.83 181.33C107.61 179.25 106.46 177.21 105.38 175.21H108.8C109.56 176.85 110.41 178.52 111.35 180.22C112.29 181.9 113.26 183.52 114.26 185.08C115.24 183.52 116.2 181.9 117.14 180.22C118.08 178.52 118.94 176.85 119.72 175.21H122.96C121.88 177.21 120.73 179.25 119.51 181.33C118.29 183.39 117 185.48 115.64 187.6V196H112.73ZM137.835 188.2C137.835 189.44 137.655 190.56 137.295 191.56C136.935 192.56 136.425 193.42 135.765 194.14C135.125 194.86 134.355 195.42 133.455 195.82C132.555 196.2 131.575 196.39 130.515 196.39C129.455 196.39 128.475 196.2 127.575 195.82C126.675 195.42 125.895 194.86 125.235 194.14C124.595 193.42 124.095 192.56 123.735 191.56C123.375 190.56 123.195 189.44 123.195 188.2C123.195 186.98 123.375 185.87 123.735 184.87C124.095 183.85 124.595 182.98 125.235 182.26C125.895 181.54 126.675 180.99 127.575 180.61C128.475 180.21 129.455 180.01 130.515 180.01C131.575 180.01 132.555 180.21 133.455 180.61C134.355 180.99 135.125 181.54 135.765 182.26C136.425 182.98 136.935 183.85 137.295 184.87C137.655 185.87 137.835 186.98 137.835 188.2ZM134.925 188.2C134.925 186.44 134.525 185.05 133.725 184.03C132.945 182.99 131.875 182.47 130.515 182.47C129.155 182.47 128.075 182.99 127.275 184.03C126.495 185.05 126.105 186.44 126.105 188.2C126.105 189.96 126.495 191.36 127.275 192.4C128.075 193.42 129.155 193.93 130.515 193.93C131.875 193.93 132.945 193.42 133.725 192.4C134.525 191.36 134.925 189.96 134.925 188.2ZM154.18 195.55C153.54 195.71 152.69 195.88 151.63 196.06C150.59 196.24 149.38 196.33 148 196.33C146.8 196.33 145.79 196.16 144.97 195.82C144.15 195.46 143.49 194.96 142.99 194.32C142.49 193.68 142.13 192.93 141.91 192.07C141.69 191.19 141.58 190.22 141.58 189.16V180.4H144.37V188.56C144.37 190.46 144.67 191.82 145.27 192.64C145.87 193.46 146.88 193.87 148.3 193.87C148.6 193.87 148.91 193.86 149.23 193.84C149.55 193.82 149.85 193.8 150.13 193.78C150.41 193.74 150.66 193.71 150.88 193.69C151.12 193.65 151.29 193.61 151.39 193.57V180.4H154.18V195.55ZM164.747 180.07C164.987 180.07 165.257 180.09 165.557 180.13C165.877 180.15 166.187 180.19 166.487 180.25C166.787 180.29 167.057 180.34 167.297 180.4C167.557 180.44 167.747 180.48 167.867 180.52L167.387 182.95C167.167 182.87 166.797 182.78 166.277 182.68C165.777 182.56 165.127 182.5 164.327 182.5C163.807 182.5 163.287 182.56 162.767 182.68C162.267 182.78 161.937 182.85 161.777 182.89V196H158.987V181.06C159.647 180.82 160.467 180.6 161.447 180.4C162.427 180.18 163.527 180.07 164.747 180.07ZM183.593 172.72C184.413 172.72 185.113 172.78 185.693 172.9C186.293 173.02 186.713 173.13 186.953 173.23L186.443 175.63C186.203 175.51 185.863 175.4 185.423 175.3C184.983 175.18 184.443 175.12 183.803 175.12C182.503 175.12 181.593 175.48 181.073 176.2C180.553 176.9 180.293 177.85 180.293 179.05V180.4H186.293V182.74H180.293V196H177.503V178.99C177.503 176.99 177.993 175.45 178.973 174.37C179.953 173.27 181.493 172.72 183.593 172.72ZM194.835 180.07C195.075 180.07 195.345 180.09 195.645 180.13C195.965 180.15 196.275 180.19 196.575 180.25C196.875 180.29 197.145 180.34 197.385 180.4C197.645 180.44 197.835 180.48 197.955 180.52L197.475 182.95C197.255 182.87 196.885 182.78 196.365 182.68C195.865 182.56 195.215 182.5 194.415 182.5C193.895 182.5 193.375 182.56 192.855 182.68C192.355 182.78 192.025 182.85 191.865 182.89V196H189.075V181.06C189.735 180.82 190.555 180.6 191.535 180.4C192.515 180.18 193.615 180.07 194.835 180.07ZM199.777 188.23C199.777 186.85 199.977 185.65 200.377 184.63C200.777 183.59 201.307 182.73 201.967 182.05C202.627 181.37 203.387 180.86 204.247 180.52C205.107 180.18 205.987 180.01 206.887 180.01C208.987 180.01 210.597 180.67 211.717 181.99C212.837 183.29 213.397 185.28 213.397 187.96C213.397 188.08 213.397 188.24 213.397 188.44C213.397 188.62 213.387 188.79 213.367 188.95H202.687C202.807 190.57 203.277 191.8 204.097 192.64C204.917 193.48 206.197 193.9 207.937 193.9C208.917 193.9 209.737 193.82 210.397 193.66C211.077 193.48 211.587 193.31 211.927 193.15L212.317 195.49C211.977 195.67 211.377 195.86 210.517 196.06C209.677 196.26 208.717 196.36 207.637 196.36C206.277 196.36 205.097 196.16 204.097 195.76C203.117 195.34 202.307 194.77 201.667 194.05C201.027 193.33 200.547 192.48 200.227 191.5C199.927 190.5 199.777 189.41 199.777 188.23ZM210.487 186.7C210.507 185.44 210.187 184.41 209.527 183.61C208.887 182.79 207.997 182.38 206.857 182.38C206.217 182.38 205.647 182.51 205.147 182.77C204.667 183.01 204.257 183.33 203.917 183.73C203.577 184.13 203.307 184.59 203.107 185.11C202.927 185.63 202.807 186.16 202.747 186.7H210.487ZM216.535 188.23C216.535 186.85 216.735 185.65 217.135 184.63C217.535 183.59 218.065 182.73 218.725 182.05C219.385 181.37 220.145 180.86 221.005 180.52C221.865 180.18 222.745 180.01 223.645 180.01C225.745 180.01 227.355 180.67 228.475 181.99C229.595 183.29 230.155 185.28 230.155 187.96C230.155 188.08 230.155 188.24 230.155 188.44C230.155 188.62 230.145 188.79 230.125 188.95H219.445C219.565 190.57 220.035 191.8 220.855 192.64C221.675 193.48 222.955 193.9 224.695 193.9C225.675 193.9 226.495 193.82 227.155 193.66C227.835 193.48 228.345 193.31 228.685 193.15L229.075 195.49C228.735 195.67 228.135 195.86 227.275 196.06C226.435 196.26 225.475 196.36 224.395 196.36C223.035 196.36 221.855 196.16 220.855 195.76C219.875 195.34 219.065 194.77 218.425 194.05C217.785 193.33 217.305 192.48 216.985 191.5C216.685 190.5 216.535 189.41 216.535 188.23ZM227.245 186.7C227.265 185.44 226.945 184.41 226.285 183.61C225.645 182.79 224.755 182.38 223.615 182.38C222.975 182.38 222.405 182.51 221.905 182.77C221.425 183.01 221.015 183.33 220.675 183.73C220.335 184.13 220.065 184.59 219.865 185.11C219.685 185.63 219.565 186.16 219.505 186.7H227.245ZM251.936 188.23C251.936 186.41 251.486 185.01 250.586 184.03C249.686 183.05 248.486 182.56 246.986 182.56C246.146 182.56 245.486 182.59 245.006 182.65C244.546 182.71 244.176 182.78 243.896 182.86V192.7C244.236 192.98 244.726 193.25 245.366 193.51C246.006 193.77 246.706 193.9 247.466 193.9C248.266 193.9 248.946 193.76 249.506 193.48C250.086 193.18 250.556 192.78 250.916 192.28C251.276 191.76 251.536 191.16 251.696 190.48C251.856 189.78 251.936 189.03 251.936 188.23ZM254.846 188.23C254.846 189.41 254.686 190.5 254.366 191.5C254.066 192.5 253.616 193.36 253.016 194.08C252.416 194.8 251.676 195.36 250.796 195.76C249.936 196.16 248.946 196.36 247.826 196.36C246.926 196.36 246.126 196.24 245.426 196C244.746 195.76 244.236 195.53 243.896 195.31V201.55H241.106V180.88C241.766 180.72 242.586 180.55 243.566 180.37C244.566 180.17 245.716 180.07 247.016 180.07C248.216 180.07 249.296 180.26 250.256 180.64C251.216 181.02 252.036 181.56 252.716 182.26C253.396 182.96 253.916 183.82 254.276 184.84C254.656 185.84 254.846 186.97 254.846 188.23ZM264.532 180.07C264.772 180.07 265.042 180.09 265.342 180.13C265.662 180.15 265.972 180.19 266.272 180.25C266.572 180.29 266.842 180.34 267.082 180.4C267.342 180.44 267.532 180.48 267.652 180.52L267.172 182.95C266.952 182.87 266.582 182.78 266.062 182.68C265.562 182.56 264.912 182.5 264.112 182.5C263.592 182.5 263.072 182.56 262.552 182.68C262.052 182.78 261.722 182.85 261.562 182.89V196H258.772V181.06C259.432 180.82 260.252 180.6 261.232 180.4C262.212 180.18 263.312 180.07 264.532 180.07ZM273.134 196H270.344V180.4H273.134V196ZM271.724 177.58C271.224 177.58 270.794 177.42 270.434 177.1C270.094 176.76 269.924 176.31 269.924 175.75C269.924 175.19 270.094 174.75 270.434 174.43C270.794 174.09 271.224 173.92 271.724 173.92C272.224 173.92 272.644 174.09 272.984 174.43C273.344 174.75 273.524 175.19 273.524 175.75C273.524 176.31 273.344 176.76 272.984 177.1C272.644 177.42 272.224 177.58 271.724 177.58ZM290.112 180.4C289.332 183.32 288.412 186.12 287.352 188.8C286.312 191.48 285.302 193.88 284.322 196H281.802C280.822 193.88 279.802 191.48 278.742 188.8C277.702 186.12 276.792 183.32 276.012 180.4H279.012C279.252 181.38 279.532 182.43 279.852 183.55C280.192 184.65 280.542 185.75 280.902 186.85C281.282 187.93 281.662 188.98 282.042 190C282.422 191.02 282.782 191.93 283.122 192.73C283.462 191.93 283.822 191.02 284.202 190C284.582 188.98 284.952 187.93 285.312 186.85C285.692 185.75 286.042 184.65 286.362 183.55C286.702 182.43 286.992 181.38 287.232 180.4H290.112ZM298.271 193.99C298.931 193.99 299.511 193.98 300.011 193.96C300.531 193.92 300.961 193.86 301.301 193.78V189.13C301.101 189.03 300.771 188.95 300.311 188.89C299.871 188.81 299.331 188.77 298.691 188.77C298.271 188.77 297.821 188.8 297.341 188.86C296.881 188.92 296.451 189.05 296.051 189.25C295.671 189.43 295.351 189.69 295.091 190.03C294.831 190.35 294.701 190.78 294.701 191.32C294.701 192.32 295.021 193.02 295.661 193.42C296.301 193.8 297.171 193.99 298.271 193.99ZM298.031 180.01C299.151 180.01 300.091 180.16 300.851 180.46C301.631 180.74 302.251 181.15 302.711 181.69C303.191 182.21 303.531 182.84 303.731 183.58C303.931 184.3 304.031 185.1 304.031 185.98V195.73C303.791 195.77 303.451 195.83 303.011 195.91C302.591 195.97 302.111 196.03 301.571 196.09C301.031 196.15 300.441 196.2 299.801 196.24C299.181 196.3 298.561 196.33 297.941 196.33C297.061 196.33 296.251 196.24 295.511 196.06C294.771 195.88 294.131 195.6 293.591 195.22C293.051 194.82 292.631 194.3 292.331 193.66C292.031 193.02 291.881 192.25 291.881 191.35C291.881 190.49 292.051 189.75 292.391 189.13C292.751 188.51 293.231 188.01 293.831 187.63C294.431 187.25 295.131 186.97 295.931 186.79C296.731 186.61 297.571 186.52 298.451 186.52C298.731 186.52 299.021 186.54 299.321 186.58C299.621 186.6 299.901 186.64 300.161 186.7C300.441 186.74 300.681 186.78 300.881 186.82C301.081 186.86 301.221 186.89 301.301 186.91V186.13C301.301 185.67 301.251 185.22 301.151 184.78C301.051 184.32 300.871 183.92 300.611 183.58C300.351 183.22 299.991 182.94 299.531 182.74C299.091 182.52 298.511 182.41 297.791 182.41C296.871 182.41 296.061 182.48 295.361 182.62C294.681 182.74 294.171 182.87 293.831 183.01L293.501 180.7C293.861 180.54 294.461 180.39 295.301 180.25C296.141 180.09 297.051 180.01 298.031 180.01ZM311.275 180.4H317.185V182.74H311.275V189.94C311.275 190.72 311.335 191.37 311.455 191.89C311.575 192.39 311.755 192.79 311.995 193.09C312.235 193.37 312.535 193.57 312.895 193.69C313.255 193.81 313.675 193.87 314.155 193.87C314.995 193.87 315.665 193.78 316.165 193.6C316.685 193.4 317.045 193.26 317.245 193.18L317.785 195.49C317.505 195.63 317.015 195.8 316.315 196C315.615 196.22 314.815 196.33 313.915 196.33C312.855 196.33 311.975 196.2 311.275 195.94C310.595 195.66 310.045 195.25 309.625 194.71C309.205 194.17 308.905 193.51 308.725 192.73C308.565 191.93 308.485 191.01 308.485 189.97V176.05L311.275 175.57V180.4ZM319.572 188.23C319.572 186.85 319.772 185.65 320.172 184.63C320.572 183.59 321.102 182.73 321.762 182.05C322.422 181.37 323.182 180.86 324.042 180.52C324.902 180.18 325.782 180.01 326.682 180.01C328.782 180.01 330.392 180.67 331.512 181.99C332.632 183.29 333.192 185.28 333.192 187.96C333.192 188.08 333.192 188.24 333.192 188.44C333.192 188.62 333.182 188.79 333.162 188.95H322.482C322.602 190.57 323.072 191.8 323.892 192.64C324.712 193.48 325.992 193.9 327.732 193.9C328.712 193.9 329.532 193.82 330.192 193.66C330.872 193.48 331.382 193.31 331.722 193.15L332.112 195.49C331.772 195.67 331.172 195.86 330.312 196.06C329.472 196.26 328.512 196.36 327.432 196.36C326.072 196.36 324.892 196.16 323.892 195.76C322.912 195.34 322.102 194.77 321.462 194.05C320.822 193.33 320.342 192.48 320.022 191.5C319.722 190.5 319.572 189.41 319.572 188.23ZM330.282 186.7C330.302 185.44 329.982 184.41 329.322 183.61C328.682 182.79 327.792 182.38 326.652 182.38C326.012 182.38 325.442 182.51 324.942 182.77C324.462 183.01 324.052 183.33 323.712 183.73C323.372 184.13 323.102 184.59 322.902 185.11C322.722 185.63 322.602 186.16 322.542 186.7H330.282ZM88.5577 227.2C88.5577 228.44 88.3777 229.56 88.0177 230.56C87.6577 231.56 87.1477 232.42 86.4877 233.14C85.8477 233.86 85.0777 234.42 84.1777 234.82C83.2777 235.2 82.2977 235.39 81.2377 235.39C80.1777 235.39 79.1977 235.2 78.2977 234.82C77.3977 234.42 76.6177 233.86 75.9577 233.14C75.3177 232.42 74.8177 231.56 74.4577 230.56C74.0977 229.56 73.9177 228.44 73.9177 227.2C73.9177 225.98 74.0977 224.87 74.4577 223.87C74.8177 222.85 75.3177 221.98 75.9577 221.26C76.6177 220.54 77.3977 219.99 78.2977 219.61C79.1977 219.21 80.1777 219.01 81.2377 219.01C82.2977 219.01 83.2777 219.21 84.1777 219.61C85.0777 219.99 85.8477 220.54 86.4877 221.26C87.1477 221.98 87.6577 222.85 88.0177 223.87C88.3777 224.87 88.5577 225.98 88.5577 227.2ZM85.6477 227.2C85.6477 225.44 85.2477 224.05 84.4477 223.03C83.6677 221.99 82.5977 221.47 81.2377 221.47C79.8777 221.47 78.7977 221.99 77.9977 223.03C77.2177 224.05 76.8277 225.44 76.8277 227.2C76.8277 228.96 77.2177 230.36 77.9977 231.4C78.7977 232.42 79.8777 232.93 81.2377 232.93C82.5977 232.93 83.6677 232.42 84.4477 231.4C85.2477 230.36 85.6477 228.96 85.6477 227.2ZM92.483 219.85C93.123 219.69 93.973 219.52 95.033 219.34C96.093 219.16 97.313 219.07 98.693 219.07C99.933 219.07 100.963 219.25 101.783 219.61C102.603 219.95 103.253 220.44 103.733 221.08C104.233 221.7 104.583 222.45 104.783 223.33C104.983 224.21 105.083 225.18 105.083 226.24V235H102.293V226.84C102.293 225.88 102.223 225.06 102.083 224.38C101.963 223.7 101.753 223.15 101.453 222.73C101.153 222.31 100.753 222.01 100.253 221.83C99.753 221.63 99.133 221.53 98.393 221.53C98.093 221.53 97.783 221.54 97.463 221.56C97.143 221.58 96.833 221.61 96.533 221.65C96.253 221.67 95.993 221.7 95.753 221.74C95.533 221.78 95.373 221.81 95.273 221.83V235H92.483V219.85ZM116.49 235.36C115.23 235.36 114.12 235.16 113.16 234.76C112.22 234.36 111.42 233.8 110.76 233.08C110.12 232.36 109.64 231.51 109.32 230.53C109 229.53 108.84 228.43 108.84 227.23C108.84 226.03 109.01 224.93 109.35 223.93C109.71 222.93 110.21 222.07 110.85 221.35C111.49 220.61 112.27 220.04 113.19 219.64C114.13 219.22 115.17 219.01 116.31 219.01C117.01 219.01 117.71 219.07 118.41 219.19C119.11 219.31 119.78 219.5 120.42 219.76L119.79 222.13C119.37 221.93 118.88 221.77 118.32 221.65C117.78 221.53 117.2 221.47 116.58 221.47C115.02 221.47 113.82 221.96 112.98 222.94C112.16 223.92 111.75 225.35 111.75 227.23C111.75 228.07 111.84 228.84 112.02 229.54C112.22 230.24 112.52 230.84 112.92 231.34C113.34 231.84 113.87 232.23 114.51 232.51C115.15 232.77 115.93 232.9 116.85 232.9C117.59 232.9 118.26 232.83 118.86 232.69C119.46 232.55 119.93 232.4 120.27 232.24L120.66 234.58C120.5 234.68 120.27 234.78 119.97 234.88C119.67 234.96 119.33 235.03 118.95 235.09C118.57 235.17 118.16 235.23 117.72 235.27C117.3 235.33 116.89 235.36 116.49 235.36ZM123.655 235V212.2L126.445 211.72V219.7C126.965 219.5 127.515 219.35 128.095 219.25C128.695 219.13 129.285 219.07 129.865 219.07C131.105 219.07 132.135 219.25 132.955 219.61C133.775 219.95 134.425 220.44 134.905 221.08C135.405 221.7 135.755 222.45 135.955 223.33C136.155 224.21 136.255 225.18 136.255 226.24V235H133.465V226.84C133.465 225.88 133.395 225.06 133.255 224.38C133.135 223.7 132.925 223.15 132.625 222.73C132.325 222.31 131.925 222.01 131.425 221.83C130.925 221.63 130.305 221.53 129.565 221.53C129.265 221.53 128.955 221.55 128.635 221.59C128.315 221.63 128.005 221.68 127.705 221.74C127.425 221.78 127.165 221.83 126.925 221.89C126.705 221.95 126.545 222 126.445 222.04V235H123.655ZM146.074 232.99C146.734 232.99 147.314 232.98 147.814 232.96C148.334 232.92 148.764 232.86 149.104 232.78V228.13C148.904 228.03 148.574 227.95 148.114 227.89C147.674 227.81 147.134 227.77 146.494 227.77C146.074 227.77 145.624 227.8 145.144 227.86C144.684 227.92 144.254 228.05 143.854 228.25C143.474 228.43 143.154 228.69 142.894 229.03C142.634 229.35 142.504 229.78 142.504 230.32C142.504 231.32 142.824 232.02 143.464 232.42C144.104 232.8 144.974 232.99 146.074 232.99ZM145.834 219.01C146.954 219.01 147.894 219.16 148.654 219.46C149.434 219.74 150.054 220.15 150.514 220.69C150.994 221.21 151.334 221.84 151.534 222.58C151.734 223.3 151.834 224.1 151.834 224.98V234.73C151.594 234.77 151.254 234.83 150.814 234.91C150.394 234.97 149.914 235.03 149.374 235.09C148.834 235.15 148.244 235.2 147.604 235.24C146.984 235.3 146.364 235.33 145.744 235.33C144.864 235.33 144.054 235.24 143.314 235.06C142.574 234.88 141.934 234.6 141.394 234.22C140.854 233.82 140.434 233.3 140.134 232.66C139.834 232.02 139.684 231.25 139.684 230.35C139.684 229.49 139.854 228.75 140.194 228.13C140.554 227.51 141.034 227.01 141.634 226.63C142.234 226.25 142.934 225.97 143.734 225.79C144.534 225.61 145.374 225.52 146.254 225.52C146.534 225.52 146.824 225.54 147.124 225.58C147.424 225.6 147.704 225.64 147.964 225.7C148.244 225.74 148.484 225.78 148.684 225.82C148.884 225.86 149.024 225.89 149.104 225.91V225.13C149.104 224.67 149.054 224.22 148.954 223.78C148.854 223.32 148.674 222.92 148.414 222.58C148.154 222.22 147.794 221.94 147.334 221.74C146.894 221.52 146.314 221.41 145.594 221.41C144.674 221.41 143.864 221.48 143.164 221.62C142.484 221.74 141.974 221.87 141.634 222.01L141.304 219.7C141.664 219.54 142.264 219.39 143.104 219.25C143.944 219.09 144.854 219.01 145.834 219.01ZM159.257 235H156.467V219.4H159.257V235ZM157.847 216.58C157.347 216.58 156.917 216.42 156.557 216.1C156.217 215.76 156.047 215.31 156.047 214.75C156.047 214.19 156.217 213.75 156.557 213.43C156.917 213.09 157.347 212.92 157.847 212.92C158.347 212.92 158.767 213.09 159.107 213.43C159.467 213.75 159.647 214.19 159.647 214.75C159.647 215.31 159.467 215.76 159.107 216.1C158.767 216.42 158.347 216.58 157.847 216.58ZM164.055 219.85C164.695 219.69 165.545 219.52 166.605 219.34C167.665 219.16 168.885 219.07 170.265 219.07C171.505 219.07 172.535 219.25 173.355 219.61C174.175 219.95 174.825 220.44 175.305 221.08C175.805 221.7 176.155 222.45 176.355 223.33C176.555 224.21 176.655 225.18 176.655 226.24V235H173.865V226.84C173.865 225.88 173.795 225.06 173.655 224.38C173.535 223.7 173.325 223.15 173.025 222.73C172.725 222.31 172.325 222.01 171.825 221.83C171.325 221.63 170.705 221.53 169.965 221.53C169.665 221.53 169.355 221.54 169.035 221.56C168.715 221.58 168.405 221.61 168.105 221.65C167.825 221.67 167.565 221.7 167.325 221.74C167.105 221.78 166.945 221.81 166.845 221.83V235H164.055V219.85ZM193.505 232.99C194.165 232.99 194.745 232.98 195.245 232.96C195.765 232.92 196.195 232.86 196.535 232.78V228.13C196.335 228.03 196.005 227.95 195.545 227.89C195.105 227.81 194.565 227.77 193.925 227.77C193.505 227.77 193.055 227.8 192.575 227.86C192.115 227.92 191.685 228.05 191.285 228.25C190.905 228.43 190.585 228.69 190.325 229.03C190.065 229.35 189.935 229.78 189.935 230.32C189.935 231.32 190.255 232.02 190.895 232.42C191.535 232.8 192.405 232.99 193.505 232.99ZM193.265 219.01C194.385 219.01 195.325 219.16 196.085 219.46C196.865 219.74 197.485 220.15 197.945 220.69C198.425 221.21 198.765 221.84 198.965 222.58C199.165 223.3 199.265 224.1 199.265 224.98V234.73C199.025 234.77 198.685 234.83 198.245 234.91C197.825 234.97 197.345 235.03 196.805 235.09C196.265 235.15 195.675 235.2 195.035 235.24C194.415 235.3 193.795 235.33 193.175 235.33C192.295 235.33 191.485 235.24 190.745 235.06C190.005 234.88 189.365 234.6 188.825 234.22C188.285 233.82 187.865 233.3 187.565 232.66C187.265 232.02 187.115 231.25 187.115 230.35C187.115 229.49 187.285 228.75 187.625 228.13C187.985 227.51 188.465 227.01 189.065 226.63C189.665 226.25 190.365 225.97 191.165 225.79C191.965 225.61 192.805 225.52 193.685 225.52C193.965 225.52 194.255 225.54 194.555 225.58C194.855 225.6 195.135 225.64 195.395 225.7C195.675 225.74 195.915 225.78 196.115 225.82C196.315 225.86 196.455 225.89 196.535 225.91V225.13C196.535 224.67 196.485 224.22 196.385 223.78C196.285 223.32 196.105 222.92 195.845 222.58C195.585 222.22 195.225 221.94 194.765 221.74C194.325 221.52 193.745 221.41 193.025 221.41C192.105 221.41 191.295 221.48 190.595 221.62C189.915 221.74 189.405 221.87 189.065 222.01L188.735 219.7C189.095 219.54 189.695 219.39 190.535 219.25C191.375 219.09 192.285 219.01 193.265 219.01ZM213.979 222.7C213.639 222.42 213.149 222.15 212.509 221.89C211.869 221.63 211.169 221.5 210.409 221.5C209.609 221.5 208.919 221.65 208.339 221.95C207.779 222.23 207.319 222.63 206.959 223.15C206.599 223.65 206.339 224.25 206.179 224.95C206.019 225.65 205.939 226.4 205.939 227.2C205.939 229.02 206.389 230.43 207.289 231.43C208.189 232.41 209.389 232.9 210.889 232.9C211.649 232.9 212.279 232.87 212.779 232.81C213.299 232.73 213.699 232.65 213.979 232.57V222.7ZM213.979 212.2L216.769 211.72V234.55C216.129 234.73 215.309 234.91 214.309 235.09C213.309 235.27 212.159 235.36 210.859 235.36C209.659 235.36 208.579 235.17 207.619 234.79C206.659 234.41 205.839 233.87 205.159 233.17C204.479 232.47 203.949 231.62 203.569 230.62C203.209 229.6 203.029 228.46 203.029 227.2C203.029 226 203.179 224.9 203.479 223.9C203.799 222.9 204.259 222.04 204.859 221.32C205.459 220.6 206.189 220.04 207.049 219.64C207.929 219.24 208.929 219.04 210.049 219.04C210.949 219.04 211.739 219.16 212.419 219.4C213.119 219.64 213.639 219.87 213.979 220.09V212.2ZM231.645 222.7C231.305 222.42 230.815 222.15 230.175 221.89C229.535 221.63 228.835 221.5 228.075 221.5C227.275 221.5 226.585 221.65 226.005 221.95C225.445 222.23 224.985 222.63 224.625 223.15C224.265 223.65 224.005 224.25 223.845 224.95C223.685 225.65 223.605 226.4 223.605 227.2C223.605 229.02 224.055 230.43 224.955 231.43C225.855 232.41 227.055 232.9 228.555 232.9C229.315 232.9 229.945 232.87 230.445 232.81C230.965 232.73 231.365 232.65 231.645 232.57V222.7ZM231.645 212.2L234.435 211.72V234.55C233.795 234.73 232.975 234.91 231.975 235.09C230.975 235.27 229.825 235.36 228.525 235.36C227.325 235.36 226.245 235.17 225.285 234.79C224.325 234.41 223.505 233.87 222.825 233.17C222.145 232.47 221.615 231.62 221.235 230.62C220.875 229.6 220.695 228.46 220.695 227.2C220.695 226 220.845 224.9 221.145 223.9C221.465 222.9 221.925 222.04 222.525 221.32C223.125 220.6 223.855 220.04 224.715 219.64C225.595 219.24 226.595 219.04 227.715 219.04C228.615 219.04 229.405 219.16 230.085 219.4C230.785 219.64 231.305 219.87 231.645 220.09V212.2ZM244.991 219.07C245.231 219.07 245.501 219.09 245.801 219.13C246.121 219.15 246.431 219.19 246.731 219.25C247.031 219.29 247.301 219.34 247.541 219.4C247.801 219.44 247.991 219.48 248.111 219.52L247.631 221.95C247.411 221.87 247.041 221.78 246.521 221.68C246.021 221.56 245.371 221.5 244.571 221.5C244.051 221.5 243.531 221.56 243.011 221.68C242.511 221.78 242.181 221.85 242.021 221.89V235H239.231V220.06C239.891 219.82 240.711 219.6 241.691 219.4C242.671 219.18 243.771 219.07 244.991 219.07ZM249.933 227.23C249.933 225.85 250.133 224.65 250.533 223.63C250.933 222.59 251.463 221.73 252.123 221.05C252.783 220.37 253.543 219.86 254.403 219.52C255.263 219.18 256.143 219.01 257.043 219.01C259.143 219.01 260.753 219.67 261.873 220.99C262.993 222.29 263.553 224.28 263.553 226.96C263.553 227.08 263.553 227.24 263.553 227.44C263.553 227.62 263.543 227.79 263.523 227.95H252.843C252.963 229.57 253.433 230.8 254.253 231.64C255.073 232.48 256.353 232.9 258.093 232.9C259.073 232.9 259.893 232.82 260.553 232.66C261.233 232.48 261.743 232.31 262.083 232.15L262.473 234.49C262.133 234.67 261.533 234.86 260.673 235.06C259.833 235.26 258.873 235.36 257.793 235.36C256.433 235.36 255.253 235.16 254.253 234.76C253.273 234.34 252.463 233.77 251.823 233.05C251.183 232.33 250.703 231.48 250.383 230.5C250.083 229.5 249.933 228.41 249.933 227.23ZM260.643 225.7C260.663 224.44 260.343 223.41 259.683 222.61C259.043 221.79 258.153 221.38 257.013 221.38C256.373 221.38 255.803 221.51 255.303 221.77C254.823 222.01 254.413 222.33 254.073 222.73C253.733 223.13 253.463 223.59 253.263 224.11C253.083 224.63 252.963 225.16 252.903 225.7H260.643ZM271.191 232.99C272.331 232.99 273.171 232.84 273.711 232.54C274.271 232.24 274.551 231.76 274.551 231.1C274.551 230.42 274.281 229.88 273.741 229.48C273.201 229.08 272.311 228.63 271.071 228.13C270.471 227.89 269.891 227.65 269.331 227.41C268.791 227.15 268.321 226.85 267.921 226.51C267.521 226.17 267.201 225.76 266.961 225.28C266.721 224.8 266.601 224.21 266.601 223.51C266.601 222.13 267.111 221.04 268.131 220.24C269.151 219.42 270.541 219.01 272.301 219.01C272.741 219.01 273.181 219.04 273.621 219.1C274.061 219.14 274.471 219.2 274.851 219.28C275.231 219.34 275.561 219.41 275.841 219.49C276.141 219.57 276.371 219.64 276.531 219.7L276.021 222.1C275.721 221.94 275.251 221.78 274.611 221.62C273.971 221.44 273.201 221.35 272.301 221.35C271.521 221.35 270.841 221.51 270.261 221.83C269.681 222.13 269.391 222.61 269.391 223.27C269.391 223.61 269.451 223.91 269.571 224.17C269.711 224.43 269.911 224.67 270.171 224.89C270.451 225.09 270.791 225.28 271.191 225.46C271.591 225.64 272.071 225.83 272.631 226.03C273.371 226.31 274.031 226.59 274.611 226.87C275.191 227.13 275.681 227.44 276.081 227.8C276.501 228.16 276.821 228.6 277.041 229.12C277.261 229.62 277.371 230.24 277.371 230.98C277.371 232.42 276.831 233.51 275.751 234.25C274.691 234.99 273.171 235.36 271.191 235.36C269.811 235.36 268.731 235.24 267.951 235C267.171 234.78 266.641 234.61 266.361 234.49L266.871 232.09C267.191 232.21 267.701 232.39 268.401 232.63C269.101 232.87 270.031 232.99 271.191 232.99ZM284.58 232.99C285.72 232.99 286.56 232.84 287.1 232.54C287.66 232.24 287.94 231.76 287.94 231.1C287.94 230.42 287.67 229.88 287.13 229.48C286.59 229.08 285.7 228.63 284.46 228.13C283.86 227.89 283.28 227.65 282.72 227.41C282.18 227.15 281.71 226.85 281.31 226.51C280.91 226.17 280.59 225.76 280.35 225.28C280.11 224.8 279.99 224.21 279.99 223.51C279.99 222.13 280.5 221.04 281.52 220.24C282.54 219.42 283.93 219.01 285.69 219.01C286.13 219.01 286.57 219.04 287.01 219.1C287.45 219.14 287.86 219.2 288.24 219.28C288.62 219.34 288.95 219.41 289.23 219.49C289.53 219.57 289.76 219.64 289.92 219.7L289.41 222.1C289.11 221.94 288.64 221.78 288 221.62C287.36 221.44 286.59 221.35 285.69 221.35C284.91 221.35 284.23 221.51 283.65 221.83C283.07 222.13 282.78 222.61 282.78 223.27C282.78 223.61 282.84 223.91 282.96 224.17C283.1 224.43 283.3 224.67 283.56 224.89C283.84 225.09 284.18 225.28 284.58 225.46C284.98 225.64 285.46 225.83 286.02 226.03C286.76 226.31 287.42 226.59 288 226.87C288.58 227.13 289.07 227.44 289.47 227.8C289.89 228.16 290.21 228.6 290.43 229.12C290.65 229.62 290.76 230.24 290.76 230.98C290.76 232.42 290.22 233.51 289.14 234.25C288.08 234.99 286.56 235.36 284.58 235.36C283.2 235.36 282.12 235.24 281.34 235C280.56 234.78 280.03 234.61 279.75 234.49L280.26 232.09C280.58 232.21 281.09 232.39 281.79 232.63C282.49 232.87 283.42 232.99 284.58 232.99ZM304.072 220.09C304.412 219.87 304.922 219.64 305.602 219.4C306.302 219.16 307.102 219.04 308.002 219.04C309.122 219.04 310.112 219.24 310.972 219.64C311.852 220.04 312.592 220.6 313.192 221.32C313.792 222.04 314.242 222.9 314.542 223.9C314.862 224.9 315.022 226 315.022 227.2C315.022 228.46 314.832 229.6 314.452 230.62C314.092 231.62 313.572 232.47 312.892 233.17C312.212 233.87 311.392 234.41 310.432 234.79C309.472 235.17 308.392 235.36 307.192 235.36C305.892 235.36 304.742 235.27 303.742 235.09C302.742 234.91 301.922 234.73 301.282 234.55V212.2L304.072 211.72V220.09ZM304.072 232.57C304.352 232.65 304.742 232.73 305.242 232.81C305.762 232.87 306.402 232.9 307.162 232.9C308.662 232.9 309.862 232.41 310.762 231.43C311.662 230.43 312.112 229.02 312.112 227.2C312.112 226.4 312.032 225.65 311.872 224.95C311.712 224.25 311.452 223.65 311.092 223.15C310.732 222.63 310.262 222.23 309.682 221.95C309.122 221.65 308.442 221.5 307.642 221.5C306.882 221.5 306.182 221.63 305.542 221.89C304.902 222.15 304.412 222.42 304.072 222.7V232.57ZM332.718 227.2C332.718 228.44 332.538 229.56 332.178 230.56C331.818 231.56 331.308 232.42 330.648 233.14C330.008 233.86 329.238 234.42 328.338 234.82C327.438 235.2 326.458 235.39 325.398 235.39C324.338 235.39 323.358 235.2 322.458 234.82C321.558 234.42 320.778 233.86 320.118 233.14C319.478 232.42 318.978 231.56 318.618 230.56C318.258 229.56 318.078 228.44 318.078 227.2C318.078 225.98 318.258 224.87 318.618 223.87C318.978 222.85 319.478 221.98 320.118 221.26C320.778 220.54 321.558 219.99 322.458 219.61C323.358 219.21 324.338 219.01 325.398 219.01C326.458 219.01 327.438 219.21 328.338 219.61C329.238 219.99 330.008 220.54 330.648 221.26C331.308 221.98 331.818 222.85 332.178 223.87C332.538 224.87 332.718 225.98 332.718 227.2ZM329.808 227.2C329.808 225.44 329.408 224.05 328.608 223.03C327.828 221.99 326.758 221.47 325.398 221.47C324.038 221.47 322.958 221.99 322.158 223.03C321.378 224.05 320.988 225.44 320.988 227.2C320.988 228.96 321.378 230.36 322.158 231.4C322.958 232.42 324.038 232.93 325.398 232.93C326.758 232.93 327.828 232.42 328.608 231.4C329.408 230.36 329.808 228.96 329.808 227.2ZM350.413 227.2C350.413 228.44 350.233 229.56 349.873 230.56C349.513 231.56 349.003 232.42 348.343 233.14C347.703 233.86 346.933 234.42 346.033 234.82C345.133 235.2 344.153 235.39 343.093 235.39C342.033 235.39 341.053 235.2 340.153 234.82C339.253 234.42 338.473 233.86 337.813 233.14C337.173 232.42 336.673 231.56 336.313 230.56C335.953 229.56 335.773 228.44 335.773 227.2C335.773 225.98 335.953 224.87 336.313 223.87C336.673 222.85 337.173 221.98 337.813 221.26C338.473 220.54 339.253 219.99 340.153 219.61C341.053 219.21 342.033 219.01 343.093 219.01C344.153 219.01 345.133 219.21 346.033 219.61C346.933 219.99 347.703 220.54 348.343 221.26C349.003 221.98 349.513 222.85 349.873 223.87C350.233 224.87 350.413 225.98 350.413 227.2ZM347.503 227.2C347.503 225.44 347.103 224.05 346.303 223.03C345.523 221.99 344.453 221.47 343.093 221.47C341.733 221.47 340.653 221.99 339.853 223.03C339.073 224.05 338.683 225.44 338.683 227.2C338.683 228.96 339.073 230.36 339.853 231.4C340.653 232.42 341.733 232.93 343.093 232.93C344.453 232.93 345.523 232.42 346.303 231.4C347.103 230.36 347.503 228.96 347.503 227.2ZM359.978 226.42C360.578 226.88 361.208 227.45 361.868 228.13C362.548 228.81 363.208 229.55 363.848 230.35C364.508 231.13 365.128 231.93 365.708 232.75C366.288 233.55 366.778 234.3 367.178 235H363.908C363.488 234.3 362.998 233.59 362.438 232.87C361.898 232.13 361.328 231.43 360.728 230.77C360.128 230.09 359.518 229.47 358.898 228.91C358.278 228.35 357.688 227.88 357.128 227.5V235H354.338V212.2L357.128 211.72V225.94C357.608 225.46 358.138 224.93 358.718 224.35C359.298 223.77 359.868 223.18 360.428 222.58C360.988 221.98 361.518 221.41 362.018 220.87C362.518 220.31 362.948 219.82 363.308 219.4H366.578C366.118 219.9 365.618 220.45 365.078 221.05C364.538 221.65 363.978 222.26 363.398 222.88C362.818 223.48 362.228 224.09 361.628 224.71C361.048 225.31 360.498 225.88 359.978 226.42Z" fill="#444444"/>
<g clip-path="url(#clip0_101_498)">
<g filter="url(#filter0_d_101_498)">
<path d="M54.5 68C54.5 63.5817 58.0817 60 62.5 60H138.5C142.918 60 146.5 63.5817 146.5 68V122C146.5 126.418 142.918 130 138.5 130H62.5C58.0817 130 54.5 126.418 54.5 122V68Z" fill="url(#paint1_linear_101_498)"/>
</g>
<g filter="url(#filter1_d_101_498)">
<path d="M127.5 129H137.5V134H127.5V129Z" fill="#F4E174"/>
</g>
<g filter="url(#filter2_d_101_498)">
<path d="M51.5 62C51.5 57.5817 55.0817 54 59.5 54H135.5C139.918 54 143.5 57.5817 143.5 62V116C143.5 120.418 139.918 124 135.5 124H59.5C55.0817 124 51.5 120.418 51.5 116V62Z" fill="url(#paint2_linear_101_498)"/>
</g>
<g filter="url(#filter3_d_101_498)">
<path d="M117.5 123H127.5V128H117.5V123Z" fill="#4BBF9D"/>
</g>
<g filter="url(#filter4_d_101_498)">
<path d="M48.5 56C48.5 51.5817 52.0817 48 56.5 48H132.5C136.918 48 140.5 51.5817 140.5 56V110C140.5 114.418 136.918 118 132.5 118H56.5C52.0817 118 48.5 114.418 48.5 110V56Z" fill="url(#paint3_linear_101_498)"/>
</g>
<g filter="url(#filter5_d_101_498)">
<path d="M107.5 117H117.5V122H107.5V117Z" fill="#517BE8"/>
</g>
<path d="M94.9323 98.3109L97.9083 93.7539H101.783L97.0713 100.76C97.5673 101.359 98.0529 102 98.5283 102.682C99.0036 103.343 99.4583 104.015 99.8923 104.697C100.326 105.379 100.719 106.03 101.07 106.65C101.422 107.27 101.721 107.828 101.969 108.324H98.0013C97.4433 107.27 96.8853 106.33 96.3273 105.503C95.7693 104.676 95.2423 103.932 94.7463 103.271C94.1263 104.098 93.5683 104.904 93.0723 105.689C92.5763 106.474 92.0699 107.353 91.5533 108.324H87.6783C87.9883 107.745 88.3396 107.146 88.7323 106.526C89.1456 105.885 89.5693 105.245 90.0033 104.604C90.4579 103.943 90.9229 103.292 91.3983 102.651C91.8943 102.01 92.3696 101.401 92.8243 100.822L87.7093 93.7539H91.7083L94.9323 98.3109Z" fill="#444444"/>
<path d="M121.465 78.139C121.465 83.715 120.53 87.863 118.66 90.583C116.79 93.303 114.07 94.663 110.5 94.663C106.93 94.663 104.21 93.303 102.34 90.583C100.47 87.863 99.535 83.715 99.535 78.139C99.535 72.631 100.487 68.517 102.391 65.797C104.295 63.077 106.998 61.717 110.5 61.717C114.07 61.717 116.79 63.077 118.66 65.797C120.53 68.483 121.465 72.597 121.465 78.139ZM115.804 78.139C115.804 74.535 115.345 71.798 114.427 69.928C113.543 68.024 112.234 67.072 110.5 67.072C108.8 67.072 107.491 68.024 106.573 69.928C105.655 71.798 105.196 74.535 105.196 78.139C105.196 81.777 105.655 84.548 106.573 86.452C107.491 88.322 108.8 89.257 110.5 89.257C112.234 89.257 113.543 88.322 114.427 86.452C115.345 84.548 115.804 81.777 115.804 78.139ZM113.356 77.629C113.356 78.547 113.084 79.346 112.54 80.026C112.03 80.672 111.367 80.995 110.551 80.995C109.667 80.995 108.97 80.672 108.46 80.026C107.95 79.346 107.695 78.547 107.695 77.629C107.695 76.711 107.95 75.912 108.46 75.232C108.97 74.552 109.667 74.212 110.551 74.212C111.367 74.212 112.03 74.552 112.54 75.232C113.084 75.912 113.356 76.711 113.356 77.629Z" fill="#444444"/>
<path d="M90.465 78.139C90.465 83.715 89.53 87.863 87.66 90.583C85.79 93.303 83.07 94.663 79.5 94.663C75.93 94.663 73.21 93.303 71.34 90.583C69.47 87.863 68.535 83.715 68.535 78.139C68.535 72.631 69.487 68.517 71.391 65.797C73.295 63.077 75.998 61.717 79.5 61.717C83.07 61.717 85.79 63.077 87.66 65.797C89.53 68.483 90.465 72.597 90.465 78.139ZM84.804 78.139C84.804 74.535 84.345 71.798 83.427 69.928C82.543 68.024 81.234 67.072 79.5 67.072C77.8 67.072 76.491 68.024 75.573 69.928C74.655 71.798 74.196 74.535 74.196 78.139C74.196 81.777 74.655 84.548 75.573 86.452C76.491 88.322 77.8 89.257 79.5 89.257C81.234 89.257 82.543 88.322 83.427 86.452C84.345 84.548 84.804 81.777 84.804 78.139ZM82.356 77.629C82.356 78.547 82.084 79.346 81.54 80.026C81.03 80.672 80.367 80.995 79.551 80.995C78.667 80.995 77.97 80.672 77.46 80.026C76.95 79.346 76.695 78.547 76.695 77.629C76.695 76.711 76.95 75.912 77.46 75.232C77.97 74.552 78.667 74.212 79.551 74.212C80.367 74.212 81.03 74.552 81.54 75.232C82.084 75.912 82.356 76.711 82.356 77.629Z" fill="#444444"/>
<g filter="url(#filter6_d_101_498)">
<path fill-rule="evenodd" clip-rule="evenodd" d="M115.5 48C115.494 43.0313 114.491 41 111.5 41C109.23 41 109.536 41.6577 110.226 43.1401C110.748 44.2628 111.49 45.8586 111.5 48H115.5ZM109.774 54.0112C109.855 53.7198 110.022 53.363 110.222 52.9365C110.465 52.4178 110.757 51.796 111 51.063C111.16 51.0219 111.327 51 111.5 51C112.605 51 113.5 51.8954 113.5 53C113.5 54.1046 112.605 55 111.5 55C110.764 55 110.121 54.6028 109.774 54.0112Z" fill="#444444"/>
<path d="M110.5 41C107.5 41 106.5 43 106.5 47.9999C106.5 52.9999 107.5 55 110.5 55C111.494 55 111.829 55 112.094 55C113.413 55 110.5 52.5092 110.5 47.9999C110.5 43.6 113.001 41 112 41C111.94 41 111.567 41 110.5 41Z" fill="#94928F"/>
<path fill-rule="evenodd" clip-rule="evenodd" d="M108.91 42.1877C109.662 42.5557 108.722 43.16 108.499 44.0503C108.277 44.9406 108.203 45.9501 107.51 45.8142C106.817 45.6783 107.433 44.157 107.51 43.8158C107.587 43.4746 108.157 41.8197 108.91 42.1877Z" fill="#F7F7F7"/>
</g>
<g filter="url(#filter7_d_101_498)">
<path fill-rule="evenodd" clip-rule="evenodd" d="M84.5 48C84.4942 43.0313 83.4914 41 80.5 41C78.2304 41 78.5363 41.6577 79.2257 43.1401C79.7479 44.2628 80.4901 45.8586 80.4999 48H84.5ZM78.7741 54.0112C78.8548 53.7198 79.0221 53.363 79.2221 52.9365C79.4653 52.4178 79.7568 51.796 80 51.063C80.1598 51.0219 80.3274 51 80.5 51C81.6046 51 82.5 51.8954 82.5 53C82.5 54.1046 81.6046 55 80.5 55C79.7644 55 79.1215 54.6028 78.7741 54.0112Z" fill="#444444"/>
<path d="M79.5 41C76.5 41 75.5 43 75.5 47.9999C75.5 52.9999 76.5 55 79.5 55C80.4938 55 80.8293 55 81.0945 55C82.4125 55 79.5 52.5092 79.5 47.9999C79.5 43.6 82.0011 41 81 41C80.9402 41 80.5667 41 79.5 41Z" fill="#94928F"/>
<path fill-rule="evenodd" clip-rule="evenodd" d="M77.9097 42.1877C78.6623 42.5557 77.7218 43.16 77.4995 44.0503C77.2772 44.9406 77.2027 45.9501 76.5099 45.8142C75.8172 45.6783 76.4333 44.157 76.51 43.8158C76.5866 43.4746 77.1572 41.8197 77.9097 42.1877Z" fill="#F7F7F7"/>
</g>
</g>
<path d="M195.342 85.23C194.814 85.098 194.176 84.966 193.428 84.834C192.724 84.702 191.998 84.592 191.25 84.504C190.502 84.372 189.776 84.284 189.072 84.24C188.368 84.196 187.774 84.174 187.29 84.174C186.146 84.174 185.024 84.24 183.924 84.372C182.824 84.46 181.702 84.658 180.558 84.966V108H172.374V79.026C174.53 78.234 176.73 77.596 178.974 77.112C181.262 76.628 183.924 76.386 186.96 76.386C187.4 76.386 188.016 76.408 188.808 76.452C189.644 76.496 190.524 76.584 191.448 76.716C192.372 76.804 193.296 76.936 194.22 77.112C195.188 77.244 196.046 77.442 196.794 77.706L195.342 85.23ZM229.332 92.424C229.332 94.888 228.98 97.132 228.276 99.156C227.572 101.136 226.582 102.852 225.306 104.304C224.03 105.756 222.49 106.878 220.686 107.67C218.926 108.462 216.946 108.858 214.746 108.858C212.546 108.858 210.544 108.462 208.74 107.67C206.98 106.878 205.44 105.756 204.12 104.304C202.844 102.852 201.854 101.136 201.15 99.156C200.446 97.132 200.094 94.888 200.094 92.424C200.094 90.004 200.446 87.804 201.15 85.824C201.898 83.8 202.91 82.084 204.186 80.676C205.506 79.224 207.068 78.124 208.872 77.376C210.676 76.584 212.634 76.188 214.746 76.188C216.902 76.188 218.86 76.584 220.62 77.376C222.424 78.124 223.964 79.224 225.24 80.676C226.56 82.084 227.572 83.8 228.276 85.824C228.98 87.804 229.332 90.004 229.332 92.424ZM208.344 92.49C208.344 95.262 208.828 97.506 209.796 99.222C210.808 100.938 212.414 101.796 214.614 101.796C216.726 101.796 218.31 100.938 219.366 99.222C220.466 97.506 221.016 95.262 221.016 92.49C221.016 89.718 220.51 87.496 219.498 85.824C218.53 84.108 216.946 83.25 214.746 83.25C212.634 83.25 211.028 84.108 209.928 85.824C208.872 87.496 208.344 89.718 208.344 92.49ZM257.382 106.68C257.25 106.768 256.942 106.922 256.458 107.142C256.018 107.362 255.424 107.604 254.676 107.868C253.928 108.088 253.004 108.286 251.904 108.462C250.848 108.638 249.638 108.726 248.274 108.726C244.534 108.726 241.806 107.626 240.09 105.426C238.374 103.182 237.516 99.926 237.516 95.658V69.324H228.936V62.592H245.634V96.252C245.634 98.364 246.052 99.794 246.888 100.542C247.724 101.29 248.78 101.664 250.056 101.664C251.684 101.664 253.048 101.444 254.148 101.004C255.248 100.564 255.974 100.278 256.326 100.146L257.382 106.68ZM290.712 92.424C290.712 94.888 290.36 97.132 289.656 99.156C288.952 101.136 287.962 102.852 286.686 104.304C285.41 105.756 283.87 106.878 282.066 107.67C280.306 108.462 278.326 108.858 276.126 108.858C273.926 108.858 271.924 108.462 270.12 107.67C268.36 106.878 266.82 105.756 265.5 104.304C264.224 102.852 263.234 101.136 262.53 99.156C261.826 97.132 261.474 94.888 261.474 92.424C261.474 90.004 261.826 87.804 262.53 85.824C263.278 83.8 264.29 82.084 265.566 80.676C266.886 79.224 268.448 78.124 270.252 77.376C272.056 76.584 274.014 76.188 276.126 76.188C278.282 76.188 280.24 76.584 282 77.376C283.804 78.124 285.344 79.224 286.62 80.676C287.94 82.084 288.952 83.8 289.656 85.824C290.36 87.804 290.712 90.004 290.712 92.424ZM269.724 92.49C269.724 95.262 270.208 97.506 271.176 99.222C272.188 100.938 273.794 101.796 275.994 101.796C278.106 101.796 279.69 100.938 280.746 99.222C281.846 97.506 282.396 95.262 282.396 92.49C282.396 89.718 281.89 87.496 280.878 85.824C279.91 84.108 278.326 83.25 276.126 83.25C274.014 83.25 272.408 84.108 271.308 85.824C270.252 87.496 269.724 89.718 269.724 92.49ZM304.638 92.292C304.638 95.064 305.144 97.33 306.156 99.09C307.212 100.85 308.884 101.73 311.172 101.73C311.832 101.73 312.448 101.708 313.02 101.664C313.592 101.62 314.186 101.554 314.802 101.466V84.57C314.186 84.218 313.482 83.932 312.69 83.712C311.898 83.448 311.062 83.316 310.182 83.316C308.246 83.316 306.838 84.086 305.958 85.626C305.078 87.166 304.638 89.388 304.638 92.292ZM322.92 107.076C321.424 107.56 319.598 107.956 317.442 108.264C315.286 108.572 313.174 108.726 311.106 108.726C306.266 108.726 302.592 107.296 300.084 104.436C297.62 101.576 296.388 97.66 296.388 92.688C296.388 87.628 297.422 83.646 299.49 80.742C301.602 77.794 304.704 76.32 308.796 76.32C309.896 76.32 310.974 76.452 312.03 76.716C313.086 76.936 314.01 77.266 314.802 77.706V63.582L322.92 62.196V107.076Z" fill="#444444"/>
<path d="M358.89 87.474C358.89 94.69 357.68 100.058 355.26 103.578C352.84 107.098 349.32 108.858 344.7 108.858C340.08 108.858 336.56 107.098 334.14 103.578C331.72 100.058 330.51 94.69 330.51 87.474C330.51 80.346 331.742 75.022 334.206 71.502C336.67 67.982 340.168 66.222 344.7 66.222C349.32 66.222 352.84 67.982 355.26 71.502C357.68 74.978 358.89 80.302 358.89 87.474ZM351.564 87.474C351.564 82.81 350.97 79.268 349.782 76.848C348.638 74.384 346.944 73.152 344.7 73.152C342.5 73.152 340.806 74.384 339.618 76.848C338.43 79.268 337.836 82.81 337.836 87.474C337.836 92.182 338.43 95.768 339.618 98.232C340.806 100.652 342.5 101.862 344.7 101.862C346.944 101.862 348.638 100.652 349.782 98.232C350.97 95.768 351.564 92.182 351.564 87.474ZM348.396 86.814C348.396 88.002 348.044 89.036 347.34 89.916C346.68 90.752 345.822 91.17 344.766 91.17C343.622 91.17 342.72 90.752 342.06 89.916C341.4 89.036 341.07 88.002 341.07 86.814C341.07 85.626 341.4 84.592 342.06 83.712C342.72 82.832 343.622 82.392 344.766 82.392C345.822 82.392 346.68 82.832 347.34 83.712C348.044 84.592 348.396 85.626 348.396 86.814ZM377.964 86.682L384.3 76.98H392.55L382.518 91.896C383.574 93.172 384.608 94.536 385.62 95.988C386.632 97.396 387.6 98.826 388.524 100.278C389.448 101.73 390.284 103.116 391.032 104.436C391.78 105.756 392.418 106.944 392.946 108H384.498C383.31 105.756 382.122 103.754 380.934 101.994C379.746 100.234 378.624 98.65 377.568 97.242C376.248 99.002 375.06 100.718 374.004 102.39C372.948 104.062 371.87 105.932 370.77 108H362.52C363.18 106.768 363.928 105.492 364.764 104.172C365.644 102.808 366.546 101.444 367.47 100.08C368.438 98.672 369.428 97.286 370.44 95.922C371.496 94.558 372.508 93.26 373.476 92.028L362.586 76.98H371.1L377.964 86.682Z" fill="#517BE8"/>
<defs>
<filter id="filter0_d_101_498" x="54" y="60" width="97" height="76.5" filterUnits="userSpaceOnUse" color-interpolation-filters="sRGB">
<feFlood flood-opacity="0" result="BackgroundImageFix"/>
<feColorMatrix in="SourceAlpha" type="matrix" values="0 0 0 0 0 0 0 0 0 0 0 0 0 0 0 0 0 0 127 0" result="hardAlpha"/>
<feOffset dx="2" dy="4"/>
<feGaussianBlur stdDeviation="1.25"/>
<feComposite in2="hardAlpha" operator="out"/>
<feColorMatrix type="matrix" values="0 0 0 0 0 0 0 0 0 0 0 0 0 0 0 0 0 0 0.2 0"/>
<feBlend mode="normal" in2="BackgroundImageFix" result="effect1_dropShadow_101_498"/>
<feBlend mode="normal" in="SourceGraphic" in2="effect1_dropShadow_101_498" result="shape"/>
</filter>
<filter id="filter1_d_101_498" x="123.5" y="126" width="18" height="13" filterUnits="userSpaceOnUse" color-interpolation-filters="sRGB">
<feFlood flood-opacity="0" result="BackgroundImageFix"/>
<feColorMatrix in="SourceAlpha" type="matrix" values="0 0 0 0 0 0 0 0 0 0 0 0 0 0 0 0 0 0 127 0" result="hardAlpha"/>
<feOffset dy="1"/>
<feGaussianBlur stdDeviation="2"/>
<feComposite in2="hardAlpha" operator="out"/>
<feColorMatrix type="matrix" values="0 0 0 0 0 0 0 0 0 0 0 0 0 0 0 0 0 0 0.25 0"/>
<feBlend mode="normal" in2="BackgroundImageFix" result="effect1_dropShadow_101_498"/>
<feBlend mode="normal" in="SourceGraphic" in2="effect1_dropShadow_101_498" result="shape"/>
</filter>
<filter id="filter2_d_101_498" x="51" y="54" width="97" height="76.5" filterUnits="userSpaceOnUse" color-interpolation-filters="sRGB">
<feFlood flood-opacity="0" result="BackgroundImageFix"/>
<feColorMatrix in="SourceAlpha" type="matrix" values="0 0 0 0 0 0 0 0 0 0 0 0 0 0 0 0 0 0 127 0" result="hardAlpha"/>
<feOffset dx="2" dy="4"/>
<feGaussianBlur stdDeviation="1.25"/>
<feComposite in2="hardAlpha" operator="out"/>
<feColorMatrix type="matrix" values="0 0 0 0 0 0 0 0 0 0 0 0 0 0 0 0 0 0 0.2 0"/>
<feBlend mode="normal" in2="BackgroundImageFix" result="effect1_dropShadow_101_498"/>
<feBlend mode="normal" in="SourceGraphic" in2="effect1_dropShadow_101_498" result="shape"/>
</filter>
<filter id="filter3_d_101_498" x="113.5" y="120" width="18" height="13" filterUnits="userSpaceOnUse" color-interpolation-filters="sRGB">
<feFlood flood-opacity="0" result="BackgroundImageFix"/>
<feColorMatrix in="SourceAlpha" type="matrix" values="0 0 0 0 0 0 0 0 0 0 0 0 0 0 0 0 0 0 127 0" result="hardAlpha"/>
<feOffset dy="1"/>
<feGaussianBlur stdDeviation="2"/>
<feComposite in2="hardAlpha" operator="out"/>
<feColorMatrix type="matrix" values="0 0 0 0 0 0 0 0 0 0 0 0 0 0 0 0 0 0 0.25 0"/>
<feBlend mode="normal" in2="BackgroundImageFix" result="effect1_dropShadow_101_498"/>
<feBlend mode="normal" in="SourceGraphic" in2="effect1_dropShadow_101_498" result="shape"/>
</filter>
<filter id="filter4_d_101_498" x="48" y="48" width="97" height="76.5" filterUnits="userSpaceOnUse" color-interpolation-filters="sRGB">
<feFlood flood-opacity="0" result="BackgroundImageFix"/>
<feColorMatrix in="SourceAlpha" type="matrix" values="0 0 0 0 0 0 0 0 0 0 0 0 0 0 0 0 0 0 127 0" result="hardAlpha"/>
<feOffset dx="2" dy="4"/>
<feGaussianBlur stdDeviation="1.25"/>
<feComposite in2="hardAlpha" operator="out"/>
<feColorMatrix type="matrix" values="0 0 0 0 0 0 0 0 0 0 0 0 0 0 0 0 0 0 0.2 0"/>
<feBlend mode="normal" in2="BackgroundImageFix" result="effect1_dropShadow_101_498"/>
<feBlend mode="normal" in="SourceGraphic" in2="effect1_dropShadow_101_498" result="shape"/>
</filter>
<filter id="filter5_d_101_498" x="103.5" y="114" width="18" height="13" filterUnits="userSpaceOnUse" color-interpolation-filters="sRGB">
<feFlood flood-opacity="0" result="BackgroundImageFix"/>
<feColorMatrix in="SourceAlpha" type="matrix" values="0 0 0 0 0 0 0 0 0 0 0 0 0 0 0 0 0 0 127 0" result="hardAlpha"/>
<feOffset dy="1"/>
<feGaussianBlur stdDeviation="2"/>
<feComposite in2="hardAlpha" operator="out"/>
<feColorMatrix type="matrix" values="0 0 0 0 0 0 0 0 0 0 0 0 0 0 0 0 0 0 0.25 0"/>
<feBlend mode="normal" in2="BackgroundImageFix" result="effect1_dropShadow_101_498"/>
<feBlend mode="normal" in="SourceGraphic" in2="effect1_dropShadow_101_498" result="shape"/>
</filter>
<filter id="filter6_d_101_498" x="104.7" y="39.2" width="14.5999" height="19.6" filterUnits="userSpaceOnUse" color-interpolation-filters="sRGB">
<feFlood flood-opacity="0" result="BackgroundImageFix"/>
<feColorMatrix in="SourceAlpha" type="matrix" values="0 0 0 0 0 0 0 0 0 0 0 0 0 0 0 0 0 0 127 0" result="hardAlpha"/>
<feOffset dx="1" dy="1"/>
<feGaussianBlur stdDeviation="1.4"/>
<feComposite in2="hardAlpha" operator="out"/>
<feColorMatrix type="matrix" values="0 0 0 0 0 0 0 0 0 0 0 0 0 0 0 0 0 0 0.53 0"/>
<feBlend mode="normal" in2="BackgroundImageFix" result="effect1_dropShadow_101_498"/>
<feBlend mode="normal" in="SourceGraphic" in2="effect1_dropShadow_101_498" result="shape"/>
</filter>
<filter id="filter7_d_101_498" x="73.7" y="39.2" width="14.6" height="19.6" filterUnits="userSpaceOnUse" color-interpolation-filters="sRGB">
<feFlood flood-opacity="0" result="BackgroundImageFix"/>
<feColorMatrix in="SourceAlpha" type="matrix" values="0 0 0 0 0 0 0 0 0 0 0 0 0 0 0 0 0 0 127 0" result="hardAlpha"/>
<feOffset dx="1" dy="1"/>
<feGaussianBlur stdDeviation="1.4"/>
<feComposite in2="hardAlpha" operator="out"/>
<feColorMatrix type="matrix" values="0 0 0 0 0 0 0 0 0 0 0 0 0 0 0 0 0 0 0.53 0"/>
<feBlend mode="normal" in2="BackgroundImageFix" result="effect1_dropShadow_101_498"/>
<feBlend mode="normal" in="SourceGraphic" in2="effect1_dropShadow_101_498" result="shape"/>
</filter>
<linearGradient id="paint0_linear_101_498" x1="120" y1="19" x2="247" y2="296" gradientUnits="userSpaceOnUse">
<stop stop-color="#EBE4D8"/>
<stop offset="1" stop-color="#F7F4F0"/>
</linearGradient>
<linearGradient id="paint1_linear_101_498" x1="76" y1="66.5" x2="134" y2="130" gradientUnits="userSpaceOnUse">
<stop stop-color="white"/>
<stop offset="0.339559" stop-color="#F7F7F7"/>
<stop offset="1" stop-color="#DBDBDB"/>
</linearGradient>
<linearGradient id="paint2_linear_101_498" x1="73" y1="60.5" x2="131" y2="124" gradientUnits="userSpaceOnUse">
<stop stop-color="white"/>
<stop offset="0.339559" stop-color="#F7F7F7"/>
<stop offset="1" stop-color="#DBDBDB"/>
</linearGradient>
<linearGradient id="paint3_linear_101_498" x1="70" y1="54.5" x2="128" y2="118" gradientUnits="userSpaceOnUse">
<stop stop-color="white"/>
<stop offset="0.339559" stop-color="#F7F7F7"/>
<stop offset="1" stop-color="#DBDBDB"/>
</linearGradient>
<clipPath id="clip0_101_498">
<rect width="104" height="104" fill="white" transform="translate(46.5 38)"/>
</clipPath>
</defs>
</svg>
